# xmcd CD database file
#
# Track frame offsets:
#	150
#	36719
#	95287
#	143525
#	190989
#	207585
#	247756
#	288554
#
# Disc length: 4348 seconds
#
# Revision: 0
# Processed by: cddbd v1.5.1PL2 Copyright (c) Steve Scherf et al.
# Submitted via: CDex 1.51
#
DISCID=7510fa08
DTITLE=Miles Davis - 1969-11-06 - Riot
DYEAR=1900
DGENRE=Jazz
TTITLE0=Round About Midnight
TTITLE1=No Blues
TTITLE2=Masqualero
TTITLE3=I Fall In Love Too Easily
TTITLE4=Riot
TTITLE5=Walkin'
TTITLE6=On Green Dolphin Street
TTITLE7=The Theme
EXTD=
EXTT0=
EXTT1=
EXTT2=
EXTT3=
EXTT4=
EXTT5=
EXTT6=
EXTT7=
PLAYORDER=
